<?xml version="1.0" encoding="utf-8"?>
<!-- Generator: Adobe Illustrator 23.0.2, SVG Export Plug-In . SVG Version: 6.00 Build 0)  -->
<!DOCTYPE svg PUBLIC "-//W3C//DTD SVG 1.1//EN" "http://www.w3.org/Graphics/SVG/1.1/DTD/svg11.dtd" [
	<!ENTITY ns_extend "http://ns.adobe.com/Extensibility/1.0/">
	<!ENTITY ns_ai "http://ns.adobe.com/AdobeIllustrator/10.0/">
	<!ENTITY ns_graphs "http://ns.adobe.com/Graphs/1.0/">
	<!ENTITY ns_vars "http://ns.adobe.com/Variables/1.0/">
	<!ENTITY ns_imrep "http://ns.adobe.com/ImageReplacement/1.0/">
	<!ENTITY ns_sfw "http://ns.adobe.com/SaveForWeb/1.0/">
	<!ENTITY ns_custom "http://ns.adobe.com/GenericCustomNamespace/1.0/">
	<!ENTITY ns_adobe_xpath "http://ns.adobe.com/XPath/1.0/">
]>
<svg version="1.1" id="Layer_1" xmlns:x="&ns_extend;" xmlns:i="&ns_ai;" xmlns:graph="&ns_graphs;"
	 xmlns="http://www.w3.org/2000/svg" xmlns:xlink="http://www.w3.org/1999/xlink" x="0px" y="0px" viewBox="0 0 220 300"
	 style="enable-background:new 0 0 220 300;" xml:space="preserve">
<metadata>
	<sfw  xmlns="&ns_sfw;">
		<slices></slices>
		<sliceSourceBounds  bottomLeftOrigin="true" height="300" width="220" x="0" y="-300"></sliceSourceBounds>
	</sfw>
</metadata>
<path style="fill:#FFFFFF;" d="M110.0033417,0C49.3484116,0,0,49.2421265,0,109.7644577
	c0,54.8845139,89.1671143,169.7366943,98.8714142,182.6499634C102.4572678,297.1919556,104.0207596,300,110.0033417,300
	c5.9768677,0,7.5396729-2.8080444,11.1254959-7.5855713C130.8332062,279.5011597,220,164.6489716,220,109.7644577
	C220,49.2421265,170.6525574,0,110.0033417,0z M110.0033417,183.8742218c-41.3430557,0-74.9656754-33.5636749-74.9656754-74.8031464
	c0-41.2548294,33.6226196-74.8053284,74.9656754-74.8053284c41.3302612,0,74.9599609,33.5505028,74.9599609,74.8053284
	C184.9633026,150.3105469,151.3336029,183.8742218,110.0033417,183.8742218z"/>
<path style="fill:#FFFFFF;" d="M111.7081223,73.0267792H81.4069824c-0.1106415-0.0053177-0.21595-0.0172806-0.3239288-0.0172806
	h-3.8218002c-3.9351044,0-7.1263885,3.185791-7.1263885,7.1138306v65.2802353c0,3.9293823,3.1912842,7.6086731,7.1263885,7.6086731
	h3.8218002c3.9364471,0,7.1277161-3.6792908,7.1277161-7.6086731V85.9375763c0-10.7346115,8.0808411-9.7090302,8.0808411-9.7090302
	h14.9019547c0.4732285,0,2.1901703-0.3511658,2.1901703-1.4884796
	C113.3837357,73.2489319,111.7081223,73.0267792,111.7081223,73.0267792"/>
<path style="fill:#FFFFFF;" d="M142.937973,161.9348602h-2.2008362c0,0-2.9953156,0.6185455-2.9953156-10.1160583V91.8579788
	c0-3.9280396-3.1939392-7.1125107-7.1330566-7.1125107h-17.314743c0,0-1.5009918-0.0172958-1.5009918,1.4711838
	c0,1.1399689,1.1357422,1.3235321,1.606308,1.3235321h2.2008362c0,0,3.1086197-0.4801941,4.0630798,6.8917007v63.2011566
	c0,3.9280396,3.1912689,7.1125031,7.1237183,7.1125031h3.8217926c0.1106415,0,0.2199554-0.0093079,0.3239288-0.0159607h12.1079254
	c0,0,1.5090027,0.0159607,1.5090027-1.4711914C144.5496216,162.1170959,143.407196,161.9348602,142.937973,161.9348602"/>
<path style="fill:#FFFFFF;" d="M136.9686737,59.7813187c0,5.1158981-4.1550598,9.2621002-9.280571,9.2621002
	c-5.1241684,0-9.2779007-4.1462021-9.2779007-9.2621002c0-5.1132278,4.1537323-9.2607574,9.2779007-9.2607574
	C132.8136139,50.5205612,136.9686737,54.6680908,136.9686737,59.7813187"/>
</svg>
