<?xml version="1.0" encoding="utf-8"?>
<!-- Generator: Adobe Illustrator 23.0.2, SVG Export Plug-In . SVG Version: 6.00 Build 0)  -->
<!DOCTYPE svg PUBLIC "-//W3C//DTD SVG 1.1//EN" "http://www.w3.org/Graphics/SVG/1.1/DTD/svg11.dtd" [
	<!ENTITY ns_extend "http://ns.adobe.com/Extensibility/1.0/">
	<!ENTITY ns_ai "http://ns.adobe.com/AdobeIllustrator/10.0/">
	<!ENTITY ns_graphs "http://ns.adobe.com/Graphs/1.0/">
	<!ENTITY ns_vars "http://ns.adobe.com/Variables/1.0/">
	<!ENTITY ns_imrep "http://ns.adobe.com/ImageReplacement/1.0/">
	<!ENTITY ns_sfw "http://ns.adobe.com/SaveForWeb/1.0/">
	<!ENTITY ns_custom "http://ns.adobe.com/GenericCustomNamespace/1.0/">
	<!ENTITY ns_adobe_xpath "http://ns.adobe.com/XPath/1.0/">
]>
<svg version="1.1" id="Livello_1" xmlns:x="&ns_extend;" xmlns:i="&ns_ai;" xmlns:graph="&ns_graphs;"
	 xmlns="http://www.w3.org/2000/svg" xmlns:xlink="http://www.w3.org/1999/xlink" x="0px" y="0px" viewBox="0 0 560 90"
	 style="enable-background:new 0 0 560 90;" xml:space="preserve">
<metadata>
	<sfw  xmlns="&ns_sfw;">
		<slices></slices>
		<sliceSourceBounds  bottomLeftOrigin="true" height="85" width="545" x="410.5" y="-426.5"></sliceSourceBounds>
	</sfw>
</metadata>
<g>
	<path style="fill:#575756;" d="M552.5,15.2060394l-1.234375,3.1949806h-5.3659058v17.5499535
		c0,1.4605637,0.2446289,2.5023766,0.7310181,3.1254349c0.5033569,0.6230545,1.3602295,0.9345818,2.5691528,0.9345818
		c1.074585,0,1.9144897-0.1869125,2.5196533-0.5592995l0.5783081,2.7240715
		c-1.2400513,0.7215843-2.7473145,1.0823784-4.5231934,1.0823784c-1.3065186,0-2.4192505-0.2579155-3.3411865-0.7737541
		c-1.6924438-0.9056053-2.5224609-2.7110252-2.4871216-5.4133606V18.4010201h-3.3722534v-3.1949806h3.3722534
		c0.1173706-4.0658207,0.2587891-6.3566427,0.4255981-6.8724756l4.2078857-0.9853015
		c0,0.0347729-0.0678711,0.8969131-0.2007446,2.5835137c-0.2191772,1.6344442-0.3280029,3.3920431-0.3280029,5.2742634H552.5z
		 M527.2315063,6.8686509c0-0.9751592,0.3096924-1.7749891,0.9303589-2.3965993
		c0.5881958-0.6201625,1.3262939-0.9490807,2.2156372-0.9838536c0.9233398,0,1.6783447,0.310081,2.2651978,0.9316914
		c0.586731,0.6201568,0.8808594,1.4199924,0.8808594,2.3951511c0,0.9403806-0.2941284,1.7213783-0.8808594,2.3429832
		c-0.586853,0.6563892-1.3418579,0.985302-2.2651978,0.985302c-0.8893433,0-1.6274414-0.3289127-2.2156372-0.985302
		C527.5411987,8.5364189,527.2315063,7.7742586,527.2315063,6.8686509 M528.2198486,15.3161564l4.1555786-0.6940527v27.7565117
		h-4.1555786V15.3161564z M513.168457,39.3299789c0-1.0432625,0.3436279-1.9097481,1.0307617-2.5994568
		c0.6532593-0.620163,1.4407959-0.9461784,2.3612671-0.9824028c1.0053101,0.0362244,1.8508911,0.3622398,2.5380249,0.9824028
		c0.6532593,0.6897087,0.9798584,1.5561943,0.9798584,2.5994568c0,1.0620918-0.3265991,1.9372711-0.9798584,2.6269836
		c-0.6531982,0.7259369-1.4648438,1.1055679-2.4361572,1.1417885c-0.9898071-0.0362206-1.8098755-0.4158516-2.4631348-1.1417885
		C513.512085,41.2672501,513.168457,40.3920708,513.168457,39.3299789 M499.8845215,21.4409637
		c-0.0339661-2.0416012-0.1697083-3.5166531-0.4058228-4.423708c-0.2884216-0.9056091-0.4496155-1.3591413-0.4835205-1.3591413
		l4.0282898-1.1446838c0,0.0362206,0.1682434,0.4709167,0.5033569,1.3055191
		c0.285614,0.8693876,0.3944702,1.8996038,0.3280334,3.0877619c2.030426-2.9283733,4.4312744-4.4367542,7.2012024-4.5251369
		c0.8737793,0.0883827,1.3432312,0.1854658,1.4111023,0.2926912l-1.661377,4.6352587
		c-0.3026123-0.1419983-0.6801147-0.2129974-1.1325378-0.2129974c-1.6105042,0.0347786-3.0357361,0.6839142-4.2772217,1.944519
		c-0.5542603,0.5506115-0.9317627,1.1359959-1.1325378,1.7576065c-0.2347107,0.6216087-0.3520813,1.4750557-0.3520813,2.5574341
		v17.0225296h-4.026886V21.4409637z M481.6362305,17.8156376c-3.7158203,0-5.6911011,2.8341904-5.9258423,8.5025692h11.7781372
		c-0.0339661-2.8530293-0.4369507-4.8757935-1.2103577-6.0697441
		C485.2855835,18.6792259,483.738739,17.8692474,481.6362305,17.8156376 M483.3018494,39.4763222
		c2.4291382,0,4.5231628-0.8563423,6.2835388-2.5704765l1.5326843,2.7544975
		c-2.3626709,2.1691093-5.245697,3.2790222-8.647644,3.3311882c-7.4924622-0.1956139-11.2874756-5.016346-11.3878784-14.4650936
		c-0.0353394-4.3686504,0.9954224-7.7867775,3.0937195-10.255825c2.061554-2.5038242,4.6193542-3.7571821,7.6720276-3.7571821
		c2.8504944,0.0362206,5.1721802,1.0128279,6.9678955,2.9312696c1.0845032,1.0997677,1.8508606,2.4849873,2.3018799,4.1542034
		c0.4171448,1.6692162,0.625,4.1020374,0.625,7.2984715v0.6129169h-16.0326843v0.6418953
		c-0.0353394,2.5719223,0.3605652,4.5642586,1.184906,5.975563c0.7564392,1.1432343,1.6811523,1.9908867,2.7741394,2.5443916
		C480.7793579,39.2082634,481.9897156,39.4763222,483.3018494,39.4763222 M466.7403564,15.2060394l-1.234375,3.1949806h-5.3658752
		v17.5499535c0,1.4605637,0.2445984,2.5023766,0.7309875,3.1254349c0.5033569,0.6230545,1.3602295,0.9345818,2.5691223,0.9345818
		c1.0746155,0,1.9144592-0.1869125,2.5196533-0.5592995l0.5783081,2.7240715
		c-1.2386475,0.7215843-2.7472839,1.0823784-4.5232239,1.0823784c-1.306427,0-2.4192505-0.2579155-3.341095-0.7737541
		c-1.6925049-0.9056053-2.5224915-2.7110252-2.4871216-5.4133606V18.4010201h-3.3722534v-3.1949806h3.3722534
		c0.1173401-4.0658207,0.258728-6.3566427,0.4255981-6.8724756l4.2078552-0.9853015
		c0,0.0347729-0.0678711,0.8969131-0.2007751,2.5835137c-0.2191772,1.6344442-0.3280334,3.3920431-0.3280334,5.2742634H466.7403564z
		 M439.298645,14.1671228c2.8872681,0.0362263,5.497406,0.7607126,7.8318176,2.1749067l-1.4888916,3.1558628
		c-1.0915833-0.6230583-2.1590881-1.1113586-3.2011719-1.4663601c-1.0264893-0.339056-2.1110229-0.5071392-3.253479-0.5071392
		c-1.4464722,0-2.5974121,0.3999176-3.4542236,1.199749c-0.9247437,0.7998352-1.3871155,1.8938046-1.3871155,3.2804718
		c0,1.0128345,0.285614,1.831501,0.8568726,2.4531116c0.5542603,0.6578312,1.5030212,1.1548328,2.8476562,1.4924393
		l3.401947,0.7476749c4.5854187,1.0316639,6.8788452,3.5644703,6.8788452,7.5998592
		c-0.0509338,2.6501656-0.9473572,4.7830544-2.6907654,6.4001083c-1.7433777,1.6358871-4.0735779,2.4719429-6.990509,2.5067215
		c-3.4372864-0.0347786-6.5804749-0.9418335-9.4295654-2.7197189l1.5355225-3.1384735
		c2.6186523,1.7054367,5.337677,2.5574341,8.1584778,2.5574341c1.6118469,0,2.8787537-0.4346886,3.802063-1.3069725
		c0.906311-0.8360558,1.3757629-1.9648056,1.4096985-3.3876991c0.0353394-2.399498-1.3800049-3.8933907-4.2460632-4.4802227
		l-3.1954956-0.7201347c-4.2955627-1.0838337-6.4602661-3.5731716-6.4928284-7.4665546
		c0.0325623-2.5255585,0.8879395-4.5512257,2.5663147-6.0813408
		C434.4007263,14.9684067,436.5810547,14.2033491,439.298645,14.1671228 M417.3471985,6.8686509
		c0-0.9751592,0.3110657-1.7749891,0.9318237-2.3965993c0.5867615-0.6201625,1.3248291-0.9490807,2.2142029-0.9838536
		c0.9233398,0,1.6783752,0.310081,2.2651672,0.9316914c0.5881653,0.6201568,0.8822937,1.4199924,0.8822937,2.3951511
		c0,0.9403806-0.2941284,1.7213783-0.8822937,2.3429832c-0.586792,0.6563892-1.3418274,0.985302-2.2651672,0.985302
		c-0.8893738,0-1.6274414-0.3289127-2.2142029-0.985302C417.6582642,8.5364189,417.3471985,7.7742586,417.3471985,6.8686509
		 M418.3369751,15.3161564l4.1541443-0.6940527v27.7565117h-4.1541443V15.3161564z M403.8526001,23.6216698
		c0.0692444-3.6224308-1.5129089-5.4148102-4.7466125-5.3800373c-3.2492065,0-4.8738403,1.8474426-4.8738403,5.5408726
		c0,3.5340424,1.6585388,5.3003426,4.9742432,5.3003426C402.3043518,29.0828476,403.8526001,27.2629375,403.8526001,23.6216698
		 M407.0523376,16.1797447c1.2301331,0.0362263,2.4008789-0.360795,3.5150452-1.1881561l2.4942017,2.5893173
		c-1.4775696,1.1388912-2.9197693,1.689497-4.3294983,1.6547241c-0.6871643,0-1.2753906-0.115921-1.7617798-0.3477573
		c1.0237122,1.3518963,1.535553,2.8993988,1.535553,4.6425114c-0.033905,3.2543907-1.3008118,5.75387-3.8006592,7.4969826
		c-1.3079224,0.8360577-2.9113159,1.2359734-4.8059998,1.199749c-1.6783142,0.6621819-2.8617859,1.2345238-3.5489502,1.7170334
		c-0.7564697,0.4651184-1.1170349,0.9563217-1.0831299,1.4750519c0,0.8766251,0.690033,1.3142204,2.068634,1.3142204h4.1371765
		c2.7911072-0.0362282,4.8597107,0.4694633,6.20578,1.512722c1.9031677,1.45187,2.8377686,3.3529205,2.8024292,5.7075005
		c-0.1343384,5.7321358-3.5306396,8.5808182-10.1902771,8.5460434c-3.9929504-0.0347786-6.8448792-0.7042007-8.5557251-2.0053787
		c-1.7617798-1.3055229-2.6256714-2.9356194-2.5917664-4.8888359c0-0.9056053,0.1753235-1.8749695,0.526001-2.9037361
		l4.2092896-0.3738365c-0.4538574,0.6926117-0.697052,1.5098267-0.7310181,2.4516602
		c0,1.4562187,0.5047607,2.5125198,1.5143433,3.1703491c1.3305054,0.7983856,3.0639954,1.2156906,5.2018738,1.251915
		c4.1060791,0.0347748,6.1930542-1.5460548,6.2609253-4.7453842c0-1.4924393-0.4623413-2.5849686-1.387085-3.2775726
		c-0.8907471-0.6578369-2.5804138-0.9867554-5.0675354-0.9867554c-1.4111328,0.0362282-2.7317505,0.0536156-3.9590759,0.0536156
		c-3.2096252-0.0362244-4.8313904-1.3402977-4.8653259-3.915123c0-1.101223,0.3435669-2.0155182,1.0307617-2.7443542
		c0.6857605-0.7636108,1.8833923-1.3939095,3.592804-1.8909092c-1.7066345-0.6578312-3.0710754-1.6779118-4.0933228-3.0631256
		c-1.1043091-1.3852196-1.657135-2.9834366-1.657135-4.794651c0-2.7704334,0.899231-4.9902611,2.6963501-6.6594734
		c1.7122803-1.6344433,3.9802551-2.4690523,6.8024597-2.5038252c1.8466187,0.0347729,3.2577515,0.2825499,4.2319336,0.7404222
		C404.4068604,15.8899546,405.6086731,16.1449718,407.0523376,16.1797447 M372.5592651,17.8156376
		c-3.7157898,0-5.6910706,2.8341904-5.9271851,8.5025692h11.7795105c-0.0339355-2.8530293-0.438324-4.8757935-1.2117615-6.0697441
		C376.2072754,18.6792259,374.6603699,17.8692474,372.5592651,17.8156376 M374.2234802,39.4763222
		c2.4291687,0,4.5246277-0.8563423,6.2835388-2.5704765l1.5341187,2.7544975
		c-2.3641052,2.1691093-5.2471313,3.2790222-8.6490173,3.3311882c-7.4910583-0.1956139-11.2874756-5.016346-11.3878784-14.4650936
		c-0.0353394-4.3686504,0.9968262-7.7867775,3.0937195-10.255825c2.0629272-2.5038242,4.6207581-3.7571821,7.6720276-3.7571821
		c2.8504639,0.0362206,5.173584,1.0128279,6.9678345,2.9312696c1.0845032,1.0997677,1.8522644,2.4849873,2.3033142,4.1542034
		c0.4157104,1.6692162,0.625,4.1020374,0.625,7.2984715v0.6129169h-16.0340576v0.6418953
		c-0.0339355,2.5719223,0.3605347,4.5642586,1.1848755,5.975563c0.7564697,1.1432343,1.6825867,1.9908867,2.7755432,2.5443916
		C371.7010193,39.2082634,372.9113464,39.4763222,374.2234802,39.4763222 M346.5626221,21.4409637
		c-0.0339355-2.0416012-0.1696777-3.5166531-0.4072266-4.423708c-0.2884216-0.9056091-0.4496155-1.3591413-0.4821472-1.3591413
		l4.0283203-1.1446838c0,0.0362206,0.1682434,0.4709167,0.5033569,1.3055191
		c0.285614,0.8693876,0.3945007,1.8996038,0.3280334,3.0877619c2.0303955-2.9283733,4.4313049-4.4367542,7.2012024-4.5251369
		c0.8723755,0.0883827,1.3432312,0.1854658,1.4096985,0.2926912l-1.6599731,4.6352587
		c-0.3025818-0.1419983-0.6801147-0.2129974-1.1325684-0.2129974c-1.6104736,0.0347786-3.0357056,0.6839142-4.2771606,1.944519
		c-0.5542603,0.5506115-0.9317932,1.1359959-1.1325684,1.7576065c-0.2347107,0.6216087-0.3520813,1.4750557-0.3520813,2.5574341
		v17.0225296h-4.026886V21.4409637z M330.0916443,14.1671228c2.8872681,0.0362263,5.497406,0.7607126,7.8303833,2.1749067
		l-1.4874573,3.1558628c-1.0929871-0.6230583-2.1604919-1.1113586-3.2025757-1.4663601
		c-1.0250854-0.339056-2.1095886-0.5071392-3.2520752-0.5071392c-1.4464417,0-2.5973816,0.3999176-3.455658,1.199749
		c-0.9247131,0.7998352-1.3870544,1.8938046-1.3870544,3.2804718c0,1.0128345,0.285614,1.831501,0.856842,2.4531116
		c0.5542603,0.6578312,1.504425,1.1548328,2.8476562,1.4924393l3.401947,0.7476749
		c4.5868225,1.0316639,6.880249,3.5644703,6.880249,7.5998592c-0.0509338,2.6501656-0.9473572,4.7830544-2.6907349,6.4001083
		c-1.744812,1.6358871-4.0749817,2.4719429-6.990509,2.5067215c-3.4372864-0.0347786-6.5805054-0.9418335-9.4309692-2.7197189
		l1.5355225-3.1384735c2.6185913,1.7054367,5.3390503,2.5574341,8.1598511,2.5574341
		c1.6104431,0,2.8773499-0.4346886,3.8006592-1.3069725c0.9077454-0.8360558,1.3771667-1.9648056,1.4111023-3.3876991
		c0.0339355-2.399498-1.3814087-3.8933907-4.2460632-4.4802227l-3.1968994-0.7201347
		c-4.2941589-1.0838337-6.4588623-3.5731716-6.4928284-7.4665546c0.0339661-2.5255585,0.8893738-4.5512257,2.5663147-6.0813408
		C325.1923218,14.9684067,327.374054,14.2033491,330.0916443,14.1671228 M305.9670105,14.1671228
		c2.8872681,0.0362263,5.4973755,0.7607126,7.8317871,2.1749067l-1.4888611,3.1558628
		c-1.0915527-0.6230583-2.1590576-1.1113586-3.2011719-1.4663601c-1.0265198-0.339056-2.1109924-0.5071392-3.2534485-0.5071392
		c-1.4464722,0-2.5974121,0.3999176-3.4542542,1.199749c-0.9247131,0.7998352-1.387085,1.8938046-1.387085,3.2804718
		c0,1.0128345,0.285614,1.831501,0.856842,2.4531116c0.5542603,0.6578312,1.5030212,1.1548328,2.8476868,1.4924393
		l3.401947,0.7476749c4.5853882,1.0316639,6.8787842,3.5644703,6.8787842,7.5998592
		c-0.0509033,2.6501656-0.9473267,4.7830544-2.6907349,6.4001083c-1.7433472,1.6358871-4.0735474,2.4719429-6.990509,2.5067215
		c-3.4372864-0.0347786-6.5804443-0.9418335-9.4295349-2.7197189l1.5355225-3.1384735
		c2.6186218,1.7054367,5.337616,2.5574341,8.1584473,2.5574341c1.6118774,0,2.8787842-0.4346886,3.802063-1.3069725
		c0.9063416-0.8360558,1.3757935-1.9648056,1.4096985-3.3876991c0.0353699-2.399498-1.3800049-3.8933907-4.2460327-4.4802227
		l-3.1955261-0.7201347c-4.2955322-1.0838337-6.4602966-3.5731716-6.4927979-7.4665546
		c0.0325012-2.5255585,0.8879395-4.5512257,2.5662842-6.0813408
		C301.0691223,14.9684067,303.2494202,14.2033491,305.9670105,14.1671228 M280.0664673,17.8156376
		c-3.7158508,0-5.6911011,2.8341904-5.9258118,8.5025692h11.7781067c-0.0339355-2.8530293-0.438324-4.8757935-1.2117615-6.0697441
		C283.7158508,18.6792259,282.1676025,17.8692474,280.0664673,17.8156376 M281.7306824,39.4763222
		c2.430542,0,4.5245972-0.8563423,6.2835388-2.5704765l1.5341187,2.7544975
		c-2.3641052,2.1691093-5.245697,3.2790222-8.647644,3.3311882c-7.4924622-0.1956139-11.2888794-5.016346-11.3892822-14.4650936
		c-0.0339355-4.3686504,0.9968262-7.7867775,3.0937195-10.255825c2.0629272-2.5038242,4.6207275-3.7571821,7.6720276-3.7571821
		c2.8504639,0.0362206,5.173584,1.0128279,6.967865,2.9312696c1.0845032,1.0997677,1.8522644,2.4849873,2.3033142,4.1542034
		c0.4171143,1.6692162,0.6249695,4.1020374,0.6249695,7.2984715v0.6129169h-16.0326538v0.6418953
		c-0.0353699,2.5719223,0.3591309,4.5642586,1.1848755,5.975563c0.7564697,1.1432343,1.6811829,1.9908867,2.7741394,2.5443916
		C279.2096252,39.2082634,280.4199524,39.4763222,281.7306824,39.4763222 M243.1259003,21.4192314
		c-0.0339355-1.9648056-0.1866455-3.4166794-0.4567261-4.3556118l-0.5344543-1.3547859l3.9222717-1.1417933
		c0,0.0362263,0.1682434,0.4506311,0.5033569,1.244669c0.2502594,0.7940378,0.3930664,1.7807875,0.427002,2.9631453
		c2.6652985-2.7689838,5.354599-4.1542044,8.0707855-4.1542044c2.9833984,0.0709991,5.0774536,1.3939142,6.2849426,3.9687395
		c0.4171143,0.978054,0.6249695,2.0343552,0.6249695,3.170351v20.6188755h-4.0537415V23.9766655
		c0-1.4214401-0.0509338-2.444416-0.1513062-3.0674744c-0.1513062-0.6216049-0.4114685-1.1113605-0.7790833-1.4663563
		c-0.6207275-0.7302837-1.5680695-1.1128139-2.842041-1.1490402c-1.0561981,0.0362263-2.2552032,0.3999176-3.5970459,1.093977
		c-1.3404083,0.7288361-2.5055084,1.635891-3.4952545,2.7211723v20.2696724h-3.9236755V21.4192314z M228.8267212,6.8686509
		c0-0.9751592,0.3110657-1.7749891,0.9317932-2.3965993c0.586792-0.6201625,1.3248444-0.9490807,2.2142334-0.9838536
		c0.9233093,0,1.6783447,0.310081,2.2665405,0.9316914c0.5867767,0.6201568,0.8808899,1.4199924,0.8808899,2.3951511
		c0,0.9403806-0.2941132,1.7213783-0.8808899,2.3429832c-0.5881958,0.6563892-1.3432312,0.985302-2.2665405,0.985302
		c-0.889389,0-1.6274414-0.3289127-2.2142334-0.985302C229.1377869,8.5364189,228.8267212,7.7742586,228.8267212,6.8686509
		 M229.8164825,15.3161564l4.1541595-0.6940527v27.7565117h-4.1541595V15.3161564z M213.3964081,14.1671228
		c2.8872528,0.0362263,5.497406,0.7607126,7.8318024,2.1749067l-1.4874573,3.1558628
		c-1.0929871-0.6230583-2.1604919-1.1113586-3.2025604-1.4663601c-1.0265503-0.339056-2.1096039-0.5071392-3.2534943-0.5071392
		c-1.4450531,0-2.5973969,0.3999176-3.4542389,1.199749c-0.9247284,0.7998352-1.387085,1.8938046-1.387085,3.2804718
		c0,1.0128345,0.285614,1.831501,0.8568573,2.4531116c0.5542603,0.6578312,1.5030212,1.1548328,2.8476562,1.4924393
		l3.401947,0.7476749c4.5854034,1.0316639,6.87883,3.5644703,6.87883,7.5998592
		c-0.0494995,2.6501656-0.9473572,4.7830544-2.6907349,6.4001083c-1.7433929,1.6358871-4.0735779,2.4719429-6.990509,2.5067215
		c-3.4358826-0.0347786-6.5804901-0.9418335-9.4295807-2.7197189l1.5355377-3.1384735
		c2.6186218,1.7054367,5.337616,2.5574341,8.1584473,2.5574341c1.6118774,0,2.8787689-0.4346886,3.802063-1.3069725
		c0.9063568-0.8360558,1.377182-1.9648056,1.4096985-3.3876991c0.0353546-2.399498-1.3800049-3.8933907-4.246048-4.4802227
		l-3.1954956-0.7201347c-4.2955627-1.0838337-6.4602966-3.5731716-6.4928284-7.4665546
		c0.0325317-2.5255585,0.88797-4.5512257,2.5662994-6.0813408
		C208.4985199,14.9684067,210.6788025,14.2033491,213.3964081,14.1671228 M176.4742279,15.3987522l3.9759827-0.7781019v19.5495338
		c0,1.2272797,0.1173553,2.1864967,0.3520813,2.880558c0.2347107,0.6940575,0.6291962,1.2620583,1.1820526,1.7068901
		c0.8893738,0.6230583,1.9385071,0.9331398,3.1460114,0.9331398c1.3078918,0,2.5578156-0.4622231,3.7497559-1.3866692
		c1.173584-0.8722801,2.1053619-2.0546417,2.7925262-3.5485344V15.4697514l3.9548035-0.6940575v19.797308
		c0,1.632988,0.1512756,2.9124374,0.4552765,3.8354263c0.2347107,0.8708344,0.6645508,1.6083603,1.289505,2.2125816
		l-2.5662994,2.9037437c-1.575119-1.3055267-2.5055084-2.7530518-2.7911072-4.3411255
		c-1.9116364,2.7516022-4.6193237,4.1281204-8.1230621,4.1281204c-3.335495-0.0709991-5.5907288-1.3634796-6.7642975-3.8803444
		c-0.4354858-1.0809288-0.6532288-2.4183311-0.6532288-4.0136528V15.3987522z M151.5719299,36.027771
		c0.6885834,0.963562,1.6118774,1.730072,2.7698975,2.2995148c1.1749878,0.6607361,2.3655243,0.9911003,3.5744476,0.9911003
		c0.8893585,0,1.7617645-0.2318344,2.6186066-0.6955109c0.8554382-0.4100533,1.5270538-0.9809532,2.0134583-1.7126846
		c0.4878082-0.7665062,0.9148102-1.8445396,1.283844-3.2355499c0.3520813-1.4272423,0.5288239-3.2630863,0.5288239-5.5104465
		c0-3.4775295-0.5033569-5.9291916-1.5101013-7.3549824c-1.0915527-1.5344601-2.7020264-2.3183537-4.8342438-2.3545799
		c-1.2414398,0.0362263-2.4503632,0.3665924-3.6239319,0.9896507c-1.1255035,0.6607285-2.0643616,1.5156212-2.8208008,2.5675774
		V36.027771z M147.6185455,8.878377c-0.1696625-3.6818395-0.4001465-5.5394239-0.6885834-5.5756507L150.9526062,2.5
		c0.1668549,0.0347729,0.3930817,2.1806993,0.6786957,6.4348831v6.3015852
		c-0.0339355,1.8619299-0.0678558,2.8631659-0.1017914,3.0051641c2.3641052-2.4502087,4.8102112-3.655755,7.3411713-3.6209822
		c6.5027008,0.1782255,9.821228,4.7772627,9.9555511,13.8000154c-0.0339355,4.4396515-0.9473572,7.9649963-2.7402191,10.5745964
		c-1.8437805,2.6646614-4.3323212,4.0136528-7.4670105,4.049881c-1.3743591-0.0347748-2.6907349-0.3941193-3.9463043-1.0751381
		c-1.2739716-0.6824684-2.304718-1.5127258-3.0923004-2.4922371c-0.0339203,1.0302238-0.2771301,2.0155258-0.7295837,2.9559059
		h-4.0226593c0.3237915-0.6563835,0.5344696-1.5083809,0.6376953-2.5574341
		c0.1017914-1.0316658,0.1526947-2.4371719,0.1526947-4.2179604V8.878377z M119.4132843,21.4192314
		c-0.0339279-1.9648056-0.1866379-3.4166794-0.4581146-4.3556118l-0.5330505-1.3547859l3.9222717-1.1417933
		c0,0.0362263,0.1668396,0.4506311,0.5019379,1.244669c0.2516861,0.7940378,0.3944931,1.7807875,0.4284286,2.9631453
		c2.6638641-2.7689838,5.3545914-4.1542044,8.0693588-4.1542044c2.9833984,0.0709991,5.0788727,1.3939142,6.2849579,3.9687395
		c0.417099,0.978054,0.6263733,2.0343552,0.6263733,3.170351v20.6188755h-4.055191V23.9766655
		c0-1.4214401-0.0494843-2.444416-0.1498718-3.0674744c-0.1512909-0.6216049-0.4114532-1.1113605-0.7804871-1.4663563
		c-0.6207275-0.7302837-1.5680695-1.1128139-2.8420258-1.1490402c-1.0562134,0.0362263-2.2552338,0.3999176-3.5956421,1.093977
		c-1.3418274,0.7288361-2.5069122,1.635891-3.4952621,2.7211723v20.2696724h-3.9236832V21.4192314z M105.9172363,28.5771523
		c-0.6574783-0.0709991-1.3319321-0.105772-2.0219345-0.105772c-3.2195358,0-5.5030441,0.5419159-6.8505325,1.6286449
		c-1.3828278,1.1751118-2.0572815,2.7965164-2.0219345,4.8613014c0,3.3311882,1.4917068,4.9960556,4.4751205,4.9960556
		c2.8137436-0.0709991,4.8950653-1.4953384,6.2425385-4.2744713L105.9172363,28.5771523z M91.4865799,18.1344128
		c3.4415207-2.4125404,7.0357513-3.6209822,10.7798615-3.6209822c3.6097946,0.0362206,5.9866257,1.4489717,7.1290817,4.2367945
		c0.5047836,1.4909916,0.688591,3.4978161,0.5500259,6.0204773l-0.1993637,8.924221
		c-0.070694,2.1140518,0.0311127,3.6224327,0.3025894,4.528038c0.2841949,0.9244461,0.8723984,1.6344414,1.763176,2.1314392
		l-2.0643539,3.0631256c-1.8140793-0.6868095-2.9805832-2.0097237-3.5009079-3.9672852
		c-2.2326126,2.4676018-4.7098312,3.6832886-7.4288483,3.64851c-3.089447-0.0709991-5.2372208-0.9316864-6.4461365-2.580616
		c-0.622139-0.796936-1.0661163-1.6300926-1.3347626-2.4994774c-0.3195496-0.9041595-0.4793243-1.7909279-0.4793243-2.6588669
		c0.101799-6.4015579,4.6490326-9.6544991,13.6431046-9.7617264c1.1778107,0.0362282,1.7829742,0.0536156,1.8154907,0.0536156
		v-1.9054012c0-1.2171364-0.0325165-2.1386795-0.1003876-2.7646351c-0.1512985-0.6259613-0.3959045-1.1359959-0.7324219-1.5301208
		c-0.7578735-0.9838467-1.9102249-1.47505-3.4584885-1.47505c-1.4818192,0.0347729-3.0060501,0.357893-4.5712738,0.9650173
		c-1.5482635,0.6259537-2.768486,1.3779716-3.6606827,2.2531509L91.4865799,18.1344128z M78.1305008,6.8686509
		c0-0.9751592,0.3096542-1.7749891,0.9317856-2.3965993c0.586792-0.6201625,1.3248672-0.9490807,2.2142334-0.9838536
		c0.9233017,0,1.6783447,0.310081,2.2651367,0.9316914c0.5881882,0.6201568,0.8808746,1.4199924,0.8808746,2.3951511
		c0,0.9403806-0.2926865,1.7213783-0.8808746,2.3429832c-0.586792,0.6563892-1.341835,0.985302-2.2651367,0.985302
		c-0.8893661,0-1.6274414-0.3289127-2.2142334-0.985302C78.440155,8.5364189,78.1305008,7.7742586,78.1305008,6.8686509
		 M79.1202621,15.3161564l4.1541519-0.6940527v27.7565117h-4.1541519V15.3161564z M69.9692459,36.9174385
		c0,1.0316696,0.1003876,1.7431107,0.3025818,2.1343346c0.2036133,0.4086113,0.5825424,0.612915,1.1396408,0.612915
		c0.285614,0,0.463768-0.0362244,0.53022-0.1072235l0.8101959,2.7689896
		c-0.8229141,0.3897705-1.6797638,0.5853844-2.5691299,0.5853844c-1.2386093,0-2.2524033-0.3825302-3.038559-1.1461372
		c-0.4015579-0.3549995-0.7112122-0.8621407-0.9289551-1.5199738c-0.2007828-0.5853844-0.3011703-1.3678284-0.3011703-2.3444366
		V9.0870247c-0.1710892-3.6774893-0.3831787-5.5350738-0.6390991-5.5712948l4.0184097-0.802732
		c0.1654358,0.0347729,0.3916626,2.1763549,0.6758652,6.421844V36.9174385z M52.4180222,28.5771523
		c-0.6574821-0.0709991-1.3305168-0.105772-2.0219345-0.105772c-3.2181282,0-5.5016403,0.5419159-6.8505363,1.6286449
		c-1.3828316,1.1751118-2.0572815,2.7965164-2.0219307,4.8613014c0,3.3311882,1.491703,4.9960556,4.4751129,4.9960556
		c2.8137398-0.0709991,4.8950577-1.4953384,6.2439575-4.2744713L52.4180222,28.5771523z M37.9873543,18.1344128
		c3.4415283-2.4125404,7.0357628-3.6209822,10.7798729-3.6209822c3.6097832,0.0362206,5.9866219,1.4489717,7.1290817,4.2367945
		c0.504776,1.4909916,0.6885872,3.4978161,0.5500221,6.0204773l-0.1993637,8.924221
		c-0.0692825,2.1140518,0.0311089,3.6224327,0.3025856,4.528038c0.2842026,0.9244461,0.8723946,1.6344414,1.7631798,2.1314392
		l-2.0643501,3.0631256c-1.8126717-0.6868095-2.980587-2.0097237-3.5009155-3.9672852
		c-2.2326088,2.4676018-4.708416,3.6832886-7.4288368,3.64851c-3.0894585-0.0709991-5.2372284-0.9316864-6.4461479-2.580616
		c-0.6221352-0.796936-1.0661125-1.6300926-1.3347588-2.4994774c-0.3195496-0.9041595-0.4793243-1.7909279-0.4793243-2.6588669
		c0.1018028-6.4015579,4.6490326-9.6544991,13.6445122-9.7617264c1.1763992,0.0362282,1.781559,0.0536156,1.8154984,0.0536156
		v-1.9054012c0-1.2171364-0.0339394-2.1386795-0.1018066-2.7646351c-0.1512909-0.6259613-0.3959007-1.1359959-0.7324181-1.5301208
		c-0.7578697-0.9838467-1.9102325-1.47505-3.4584961-1.47505c-1.4818077,0.0347729-3.0046196,0.357893-4.5712624,0.9650173
		c-1.5482674,0.6259537-2.7684937,1.3779716-3.6606903,2.2531509L37.9873543,18.1344128z M32.7685051,15.2060394
		l-1.2343674,3.1949806h-5.3644848v17.5499535c0,1.4605637,0.2431965,2.5023766,0.7310066,3.1254349
		c0.5033627,0.6230545,1.3602085,0.9345818,2.569128,0.9345818c1.0745907,0,1.9130573-0.1869125,2.5182228-0.5592995
		l0.5797157,2.7240715c-1.2400246,0.7215843-2.747282,1.0823784-4.5231895,1.0823784
		c-1.3064804,0-2.4206638-0.2579155-3.3411388-0.7737541c-1.6938992-0.9056053-2.5224686-2.7110252-2.488533-5.4133606V18.4010201
		h-3.3708305v-3.1949806h3.3708305c0.1173573-4.0658207,0.2587509-6.3566427,0.4255962-6.8724756l4.2092953-0.9853015
		c0,0.0347729-0.0678673,0.8969131-0.2021923,2.5835137c-0.2177467,1.6344442-0.3280334,3.3920431-0.3280334,5.2742634H32.7685051z
		 M7.5,6.8686509c0-0.9751592,0.3110666-1.7749891,0.9317856-2.3965993
		c0.5867853-0.6201625,1.3248615-0.9490807,2.2142286-0.9838536c0.9233027,0,1.6783457,0.310081,2.2665443,0.9316914
		c0.5867853,0.6201568,0.8808851,1.4199924,0.8808851,2.3951511c0,0.9403806-0.2940998,1.7213783-0.8808851,2.3429832
		c-0.5881987,0.6563892-1.3432417,0.985302-2.2665443,0.985302c-0.8893671,0-1.6274433-0.3289127-2.2142286-0.985302
		C7.8110666,8.5364189,7.5,7.7742586,7.5,6.8686509 M8.4897575,15.3161564l4.1541529-0.6940527v27.7565117H8.4897575V15.3161564z"/>
	<path style="fill:#575756;" d="M551.3156128,80.8535767H552.5V77.243042h-1.1843872V80.8535767z M542.0342407,64.3328323
		c1.7365723,0.0210266,3.307373,0.4457092,4.7109375,1.2740631l-0.8949585,1.8473206
		c-0.6575317-0.364418-1.2996216-0.6503448-1.9262695-0.8591843c-0.6167603-0.1976318-1.2686768-0.297142-1.9570923-0.297142
		c-0.869751,0-1.5623779,0.235466-2.0780029,0.7036057c-0.5563354,0.468132-0.8345337,1.1086731-0.8345337,1.9202042
		c0,0.5942764,0.1727905,1.0736237,0.515564,1.4380493c0.3344116,0.3840332,0.9048462,0.6755753,1.7141113,0.8731995
		l2.0457153,0.4373016c2.7593384,0.6040878,4.1390381,2.0883942,4.1390381,4.4514999
		c-0.0308838,1.5515823-0.5704346,2.800415-1.6185303,3.7479019c-1.0494995,0.9586945-2.4517212,1.4478607-4.206543,1.4674835
		c-2.0667725-0.0196228-3.9578857-0.5508347-5.671936-1.5922318l0.9230957-1.8375015
		c1.576416,0.9979401,3.211792,1.4969177,4.9089966,1.4969177c0.9680786,0,1.730957-0.2550964,2.2859497-0.7652817
		c0.5465088-0.4891586,0.8289185-1.1507187,0.8485718-1.9832764c0.0210571-1.4058075-0.8303223-2.2804108-2.5542603-2.6238022
		l-1.9219971-0.4218903c-2.5837402-0.6349258-3.8861694-2.092598-3.9058838-4.3730087
		c0.0197144-1.4786987,0.5339355-2.665863,1.5426636-3.5614853
		C539.0880127,64.800972,540.4002686,64.3538589,542.0342407,64.3328323 M527.5221558,64.3328323
		c1.7365723,0.0210266,3.307373,0.4457092,4.7109375,1.2740631l-0.8949585,1.8473206
		c-0.6575928-0.364418-1.2996826-0.6503448-1.9262695-0.8591843c-0.6167603-0.1976318-1.2687378-0.297142-1.9571533-0.297142
		c-0.8696899,0-1.5623169,0.235466-2.0779419,0.7036057c-0.5563965,0.468132-0.8345947,1.1086731-0.8345947,1.9202042
		c0,0.5942764,0.1727905,1.0736237,0.515625,1.4380493c0.3330078,0.3840332,0.9047852,0.6755753,1.7127075,0.8731995
		l2.0470581,0.4373016c2.7593994,0.6040878,4.1376953,2.0883942,4.1376953,4.4514999
		c-0.029541,1.5515823-0.5690308,2.800415-1.6171265,3.7479019c-1.0495605,0.9586945-2.4517822,1.4478607-4.206604,1.4674835
		c-2.0666504-0.0196228-3.9578247-0.5508347-5.671875-1.5922318l0.9230347-1.8375015
		c1.5750122,0.9979401,3.211792,1.4969177,4.9090576,1.4969177c0.9680176,0,1.730957-0.2550964,2.2858887-0.7652817
		c0.5465698-0.4891586,0.8289185-1.1507187,0.8486328-1.9832764c0.0210571-1.4058075-0.8303833-2.2804108-2.5542603-2.6238022
		l-1.9220581-0.4218903c-2.5837402-0.6349258-3.8861694-2.092598-3.9058838-4.3730087
		c0.0197144-1.4786987,0.5339355-2.665863,1.5427246-3.5614853
		C524.5758667,64.800972,525.8881836,64.3538589,527.5221558,64.3328323 M511.9408569,66.4688797
		c-2.235321,0-3.4239502,1.6595078-3.5644531,4.9799118h7.0853271c-0.0196533-1.6707153-0.2626953-2.855072-0.7277832-3.5544739
		C514.1368408,66.9748611,513.2053223,66.5011215,511.9408569,66.4688797 M512.942627,79.1548309
		c1.4611816,0,2.7214355-0.5017776,3.7808228-1.5053253l0.9216309,1.6118469
		c-1.421814,1.2712555-3.1555786,1.9202042-5.2026367,1.9510345c-4.5057983-0.1135254-6.7903137-2.937767-6.8507385-8.4699097
		c-0.0210571-2.5593338,0.5999451-4.5608292,1.8616333-6.0072861c1.2406006-1.4660873,2.7790527-2.1991272,4.615387-2.1991272
		c1.7140503,0.0210266,3.1120605,0.5928802,4.19104,1.7155685c0.6519165,0.6447449,1.1141968,1.4562683,1.3853149,2.4331894
		c0.250061,0.9769211,0.3765869,2.402359,0.3765869,4.2735062v0.3588104h-9.6452637v0.3770294
		c-0.0210571,1.5067291,0.2164001,2.6728668,0.7123413,3.4984131c0.4551697,0.6699677,1.0115967,1.1661377,1.6690979,1.4913101
		C511.4252319,78.9978485,512.1530151,79.1548309,512.942627,79.1548309 M496.3033447,68.5923157
		c-0.0210876-1.1955719-0.1025391-2.05896-0.2458801-2.5901642c-0.1727905-0.529808-0.2697449-0.7961197-0.2908325-0.7961197
		l2.4250183-0.6699677c0,0.0210266,0.099762,0.2747192,0.302063,0.7638779
		c0.1714172,0.5087814,0.2374573,1.1128769,0.1967163,1.808075c1.2223511-1.7141647,2.6666565-2.5985794,4.3329773-2.650444
		c0.5254517,0.0518646,0.8078613,0.1093292,0.8486023,0.1724014l-0.9989319,2.7135162
		c-0.1826782-0.082695-0.4088745-0.1247482-0.6814575-0.1247482c-0.9693909,0.0210266-1.8264465,0.4008636-2.5738831,1.1395111
		c-0.3329773,0.3223648-0.5592041,0.6657562-0.6814575,1.0287781c-0.1405029,0.364418-0.2107239,0.8633881-0.2107239,1.4983139
		v9.9682312h-2.4222107V68.5923157z M488.0279541,68.3456345c-0.717926-1.1044693-1.9725952-1.6580963-3.763916-1.6580963
		c-1.2335815,0-2.1946106,0.553627-2.8816223,1.6580963c-0.3751526,0.5844727-0.6322632,1.2151947-0.7742004,1.8935699
		c-0.1517029,0.7092133-0.2276001,1.6160583-0.2276001,2.7219238c-0.0210266,1.8557281,0.1854553,3.2433167,0.622406,4.1599731
		c0.6870728,1.2628479,1.7239685,1.8837585,3.1092529,1.8627319c0.6477051,0,1.1900024-0.0840988,1.624176-0.250885
		c0.4355469-0.1766052,0.8907776-0.4330978,1.3656311-0.7666779c0.6167908-0.6881943,0.9258728-1.0736313,0.9258728-1.1577301
		V68.3456345z M490.467041,57.9415054V75.704071c-0.0210876,2.622406,0.1348572,4.3393784,0.4678345,5.1523132h-2.4812012
		c-0.0618286-0.0630722-0.1770325-0.6040955-0.3483887-1.6230621c-1.0088196,1.2474289-2.3702393,1.8599319-4.0857544,1.8389053
		c-4.1559448-0.082695-6.2549744-2.7681732-6.2943115-8.0536346c0-3.4030991,1.0649719-5.8629227,3.1963501-7.3822632
		c0.9286499-0.6503448,1.9248047-0.9755173,2.9855957-0.9755173c1.7969666,0.021019,3.1907043,0.6867828,4.1812134,1.9958878
		c-0.0210571-0.134552-0.0309143-0.9544983-0.0309143-2.4598236v-6.6660423L490.467041,57.9415054z M470.5752258,68.3456345
		c-0.717926-1.1044693-1.9725952-1.6580963-3.7625732-1.6580963c-1.2349854,0-2.1959839,0.553627-2.8829956,1.6580963
		c-0.3737488,0.5844727-0.6322632,1.2151947-0.7741699,1.8935699c-0.1517639,0.7092133-0.2276001,1.6160583-0.2276001,2.7219238
		c-0.0210876,1.8557281,0.1868591,3.2433167,0.622406,4.1599731c0.6870422,1.2628479,1.723938,1.8837585,3.1106567,1.8627319
		c0.6477051,0,1.1885986-0.0840988,1.6241455-0.250885c0.4341736-0.1766052,0.8893433-0.4330978,1.3656616-0.7666779
		c0.6167908-0.6881943,0.924469-1.0736313,0.924469-1.1577301V68.3456345z M473.0142822,57.9415054V75.704071
		c-0.0210571,2.622406,0.1348877,4.3393784,0.467865,5.1523132h-2.4812012
		c-0.0604248-0.0630722-0.1770325-0.6040955-0.3484497-1.6230621c-1.0087585,1.2474289-2.3702087,1.8599319-4.0856934,1.8389053
		c-4.1559753-0.082695-6.2535706-2.7681732-6.2943726-8.0536346c0-3.4030991,1.065033-5.8629227,3.1977539-7.3822632
		c0.9287109-0.6503448,1.9234619-0.9755173,2.9842224-0.9755173c1.7984009,0.021019,3.1921387,0.6867828,4.1812134,1.9958878
		c-0.0210266-0.134552-0.0309143-0.9544983-0.0309143-2.4598236v-6.6660423L473.0142822,57.9415054z M453.2798462,72.7719116
		c-0.3961792-0.0420456-0.8008728-0.0630722-1.2167358-0.0630722c-1.9360352,0-3.3101196,0.318161-4.1208191,0.9544907
		c-0.8317261,0.6881943-1.237793,1.6370773-1.2167358,2.8466644c0,1.9510422,0.8977966,2.9251556,2.6919861,2.9251556
		c1.6929932-0.0406418,2.9448547-0.8746033,3.756958-2.5018692L453.2798462,72.7719116z M444.5984497,66.6567001
		c2.0709534-1.4142227,4.2332153-2.120636,6.4854126-2.120636c2.1720886,0.0210266,3.6009521,0.8479767,4.2880249,2.4808502
		c0.3048401,0.8731995,0.4144287,2.0491486,0.3315735,3.5250397l-0.1208496,5.226593
		c-0.0421448,1.2376175,0.0196838,2.1220322,0.1826782,2.6518402c0.1713562,0.5410233,0.5254517,0.9572983,1.0607605,1.2474289
		l-1.2420044,1.7954636c-1.0917053-0.4036636-1.7927856-1.1787567-2.1061096-2.3238678
		c-1.3431702,1.4450607-2.8324585,2.157074-4.4692688,2.1360474c-1.8573914-0.0420456-3.1499329-0.5452194-3.8777466-1.5109329
		c-0.3737488-0.4667358-0.6420593-0.9544907-0.8036804-1.4646759c-0.19104-0.5284042-0.2865906-1.0484009-0.2865906-1.5571899
		c0.0604248-3.7478943,2.795929-5.6526794,8.206543-5.7157516c0.7080994,0.0210266,1.071991,0.030838,1.0930481,0.030838v-1.1156845
		c0-0.7120132-0.0210571-1.2516327-0.0618286-1.6188507c-0.0913086-0.3658218-0.2373962-0.66436-0.4397278-0.8956299
		c-0.4566345-0.5760574-1.1492615-0.8647919-2.08078-0.8647919c-0.8921814,0.0210266-1.8082275,0.2102432-2.7495422,0.5662537
		c-0.9315491,0.3658142-1.6663208,0.8059235-2.203064,1.3189087L444.5984497,66.6567001z M426.9784851,66.4688797
		c-2.2353516,0-3.4225464,1.6595078-3.5644226,4.9799118h7.0853271c-0.0196838-1.6707153-0.2627563-2.855072-0.7277832-3.5544739
		C429.1744995,66.9748611,428.2429504,66.5011215,426.9784851,66.4688797 M427.9802551,79.1548309
		c1.4611511,0,2.7214355-0.5017776,3.7807922-1.5053253l0.9216919,1.6118469
		c-1.4218445,1.2712555-3.1556091,1.9202042-5.2026978,1.9510345c-4.5057678-0.1135254-6.7902527-2.937767-6.8506775-8.4699097
		c-0.0210876-2.5593338,0.599884-4.5608292,1.8616028-6.0072861c1.2405701-1.4660873,2.7790527-2.1991272,4.615387-2.1991272
		c1.7140808,0.0210266,3.11203,0.5928802,4.1910706,1.7155685c0.6533203,0.6447449,1.1141357,1.4562683,1.3853149,2.4331894
		c0.2514954,0.9769211,0.3765259,2.402359,0.3765259,4.2735062v0.3588104h-9.6452026v0.3770294
		c-0.0211182,1.5067291,0.2163391,2.6728668,0.7123108,3.4984131c0.4552002,0.6699677,1.0115662,1.1661377,1.6690979,1.4913101
		C426.4628601,78.9978485,427.1920471,79.1548309,427.9802551,79.1548309 M404.7572021,68.5797043
		c-0.0210571-1.1507187-0.1123962-2.0014954-0.2753601-2.5509262l-0.3217468-0.7933121l2.3603516-0.6685638
		c0,0.0210266,0.0997925,0.263504,0.3020935,0.7288361c0.1517334,0.465332,0.2374268,1.0427933,0.2571106,1.7351913
		c1.6030884-1.6216583,3.2216492-2.4331894,4.8542175-2.4331894c1.7955933,0.0420456,3.0558777,0.8171387,3.7808228,2.325264
		c0.2515259,0.5718536,0.3765564,1.1913681,0.3765564,1.8557281v12.0748444h-2.4390564V70.0780182
		c0-0.8339539-0.02948-1.4324417-0.0899048-1.7968597c-0.0913391-0.364418-0.2473145-0.6503448-0.4692688-0.8591843
		c-0.3737183-0.4274902-0.942749-0.6517487-1.7098999-0.6727676c-0.6350403,0.021019-1.3558044,0.235466-2.1636353,0.6405334
		c-0.806488,0.4274902-1.5075684,0.9587021-2.1018677,1.5936279v11.8702087h-2.3604126V68.5797043z M396.3132629,68.5390549
		c-0.3344116-0.7106094-0.8050537-1.2390213-1.4134521-1.5824127c-0.5971069-0.3139572-1.2307739-0.4709396-1.8981018-0.4709396
		c-0.699707,0-1.3179016,0.147171-1.8545837,0.4387054c-0.5872803,0.3041458-1.0228271,0.7330399-1.3066406,1.2866745
		c-0.5058289,0.9404755-0.7601013,2.3308716-0.7601013,4.1697845c0,2.3827286,0.3245544,4.1291275,0.9736328,5.2363968
		c0.2936707,0.4695435,0.7277832,0.8563843,1.3066711,1.1605377c0.556366,0.302742,1.1689453,0.4541168,1.8377075,0.4541168
		c1.6607056-0.030838,2.7804565-0.8367615,3.3579407-2.4149704c0.3132935-0.8774033,0.4706421-2.0323257,0.4706421-3.4647675
		C397.0269775,71.1460495,396.7881165,69.5426102,396.3132629,68.5390549 M386.460083,72.8041458
		c0.0913391-5.4494476,2.2872925-8.231636,6.589386-8.3465729c1.3024292,0.0210266,2.3772278,0.2817307,3.2258301,0.7807007
		c0.8683167,0.529808,1.5609436,1.2011795,2.0751648,2.0127106c0.9427795,1.3833847,1.414856,3.3484344,1.414856,5.8965607
		c-0.0196838,2.6420288-0.6308594,4.6589432-1.8321228,6.0535355c-1.2209167,1.3833923-2.8197937,2.074379-4.7980042,2.074379
		C388.7249146,81.1605301,386.500824,78.3376923,386.460083,72.8041458 M363.4548035,65.2831268l2.4713745-0.8255539
		l3.2680054,10.315834c0.5943298,2.3575058,0.9118347,3.6778183,0.9539795,3.9581375h0.0632324
		c0.0618286-0.2396774,0.3948059-1.3567581,1.0003662-3.3540421l3.1274719-10.4489822h2.8619995l-5.4893188,16.4857025
		c-0.4903259,1.5908203-1.1155701,2.8915176-1.8770447,3.9006729c-0.7924194,1.0189667-1.8812561,1.7099609-3.2680054,2.074379
		l-0.7348022-1.7001495c1.0003662-0.2705154,1.7674561-0.7694855,2.2985229-1.4983215
		c0.5325317-0.7064056,0.9905396-1.8347015,1.3769226-3.3848801l-1.0172119,0.1555786
		c-0.3653259-1.6118469-0.9020081-3.5152283-1.6101074-5.7087479L363.4548035,65.2831268z M359.8285522,77.6565094
		c0,0.6026917,0.0604248,1.0189743,0.1826477,1.2488327c0.1208191,0.2396774,0.3498535,0.3588104,0.6842041,0.3588104
		c0.172821,0,0.2796021-0.021019,0.3203735-0.0616684l0.4861145,1.6202621
		c-0.4945679,0.2284622-1.0101929,0.3433914-1.5455017,0.3433914c-0.7446289,0-1.3544006-0.2242584-1.8278809-0.6713715
		c-0.2416382-0.2074356-0.427124-0.5045776-0.5577698-0.8900223c-0.1208496-0.3433914-0.1812439-0.8003159-0.1812439-1.3735733
		v-16.873951c-0.1025696-2.1528664-0.2318115-3.2405128-0.3849792-3.2615395l2.4165649-0.4709396
		c0.1011963,0.0210266,0.2360535,1.2740631,0.4074707,3.7605133V77.6565094z M340.4214783,68.5797043
		c-0.0210876-1.1507187-0.1124268-2.0014954-0.2753906-2.5509262l-0.320343-0.7933121l2.3589783-0.6685638
		c0,0.0210266,0.1011658,0.263504,0.302063,0.7288361c0.1517639,0.465332,0.2374573,1.0427933,0.2571106,1.7351913
		c1.6031189-1.6216583,3.2216492-2.4331894,4.8556519-2.4331894c1.7941589,0.0420456,3.0544434,0.8171387,3.7808228,2.325264
		c0.250061,0.5718536,0.3751221,1.1913681,0.3751221,1.8557281v12.0748444h-2.4390564V70.0780182
		c0-0.8339539-0.0295105-1.4324417-0.0899353-1.7968597c-0.0913086-0.364418-0.2472534-0.6503448-0.4692383-0.8591843
		c-0.3737488-0.4274902-0.9427795-0.6517487-1.7098694-0.6727676c-0.6350708,0.021019-1.355835,0.235466-2.1622925,0.6405334
		c-0.8078613,0.4274902-1.5089417,0.9587021-2.1032715,1.5936279v11.8702087h-2.3603516V68.5797043z M331.9775085,68.5390549
		c-0.3344116-0.7106094-0.8050842-1.2390213-1.4120178-1.5824127c-0.5985107-0.3139572-1.2307739-0.4709396-1.8995667-0.4709396
		c-0.6996765,0-1.3178711,0.147171-1.8545532,0.4387054c-0.5872803,0.3041458-1.0228271,0.7330399-1.3066711,1.2866745
		c-0.5057678,0.9404755-0.758667,2.3308716-0.758667,4.1697845c0,2.3827286,0.3231506,4.1291275,0.9722595,5.2363968
		c0.2936401,0.4695435,0.729187,0.8563843,1.3066101,1.1605377c0.556366,0.302742,1.1689453,0.4541168,1.837738,0.4541168
		c1.6620789-0.030838,2.7804565-0.8367615,3.3579102-2.4149704c0.313324-0.8774033,0.4706726-2.0323257,0.4706726-3.4647675
		C332.6912231,71.1460495,332.4523926,69.5426102,331.9775085,68.5390549 M322.1243286,72.8041458
		c0.0913086-5.4494476,2.2872925-8.231636,6.5893555-8.3465729c1.3024292,0.0210266,2.3772583,0.2817307,3.2258606,0.7807007
		c0.8682861,0.529808,1.5609741,1.2011795,2.0751953,2.0127106c0.9441223,1.3833847,1.4148254,3.3484344,1.4148254,5.8965607
		c-0.0196838,2.6420288-0.6308594,4.6589432-1.830719,6.0535355c-1.2209473,1.3833923-2.8211975,2.074379-4.7994385,2.074379
		C324.390564,81.1605301,322.1650696,78.3376923,322.1243286,72.8041458 M305.0017395,66.4688797
		c-2.235321,0-3.4239502,1.6595078-3.5658569,4.9799118h7.0853577c-0.0196533-1.6707153-0.2627258-2.855072-0.7277832-3.5544739
		C307.1963501,66.9748611,306.2648315,66.5011215,305.0017395,66.4688797 M306.0021057,79.1548309
		c1.4625854,0,2.7214355-0.5017776,3.7807922-1.5053253l0.9216919,1.6118469
		c-1.4218445,1.2712555-3.1556091,1.9202042-5.2026672,1.9510345c-4.5057983-0.1135254-6.7902832-2.937767-6.850708-8.4699097
		c-0.0210876-2.5593338,0.5999451-4.5608292,1.8616028-6.0072861c1.2406006-1.4660873,2.7790527-2.1991272,4.615387-2.1991272
		c1.7154846,0.0210266,3.11203,0.5928802,4.1910706,1.7155685c0.6533203,0.6447449,1.1141663,1.4562683,1.3853149,2.4331894
		c0.2514954,0.9769211,0.3765564,2.402359,0.3765564,4.2735062v0.3588104h-9.6452637v0.3770294
		c-0.0210571,1.5067291,0.2163696,2.6728668,0.7123413,3.4984131c0.4552002,0.6699677,1.0115967,1.1661377,1.6691284,1.4913101
		C304.4847107,78.9978485,305.2138977,79.1548309,306.0021057,79.1548309 M282.762207,65.051857l2.5640869-0.5157928
		l3.7218323,10.9521637c0.4903259,1.6861343,0.7460632,2.5901718,0.7671204,2.7149124h0.0617981
		c0-0.082695,0.2557373-0.9783249,0.7671509-2.6854782l3.6431274-10.5863419h2.6582336l-5.9894714,16.0792389h-2.4544983
		L282.762207,65.051857z M277.1001282,72.7719116c-0.3962097-0.0420456-0.8008728-0.0630722-1.2167358-0.0630722
		c-1.9360657,0-3.3101501,0.318161-4.1208191,0.9544907c-0.8317566,0.6881943-1.2378235,1.6370773-1.2167053,2.8466644
		c0,1.9510422,0.8977661,2.9251556,2.6919556,2.9251556c1.6929932-0.0406418,2.9448242-0.8746033,3.7554932-2.5018692
		L277.1001282,72.7719116z M268.4187012,66.6567001c2.0709534-1.4142227,4.2318115-2.120636,6.4854126-2.120636
		c2.1707153,0.0210266,3.6009827,0.8479767,4.2880249,2.4808502c0.3034668,0.8731995,0.4144592,2.0491486,0.3315735,3.5250397
		l-0.1208496,5.226593c-0.0421448,1.2376175,0.01828,2.1220322,0.1826782,2.6518402
		c0.1714172,0.5410233,0.5240479,0.9572983,1.0607605,1.2474289l-1.2420044,1.7954636
		c-1.0916748-0.4036636-1.7927551-1.1787567-2.1060791-2.3238678c-1.3431702,1.4450607-2.8324585,2.157074-4.4692688,2.1360474
		c-1.8587952-0.0420456-3.1513977-0.5452194-3.8777771-1.5109329c-0.3736877-0.4667358-0.6420593-0.9544907-0.8036194-1.4646759
		c-0.1911011-0.5284042-0.2880249-1.0484009-0.2880249-1.5571899c0.0617981-3.7478943,2.7973328-5.6526794,8.2079163-5.7157516
		c0.7080994,0.0210266,1.0720215,0.030838,1.0916748,0.030838v-1.1156845c0-0.7120132-0.0196533-1.2516327-0.0604248-1.6188507
		c-0.0913086-0.3658218-0.2374268-0.66436-0.4397278-0.8956299c-0.4566345-0.5760574-1.149292-0.8647919-2.0808105-0.8647919
		c-0.8921814,0.0210266-1.808197,0.2102432-2.7495422,0.5662537c-0.9315186,0.3658142-1.6663208,0.8059235-2.2030334,1.3189087
		L268.4187012,66.6567001z M251.7218323,61.2352829c-0.1025696-2.155674-0.2402344-3.2433205-0.4144745-3.2643433L253.7295532,57.5
		c0.099762,0.0210228,0.2360382,1.2768631,0.4074707,3.7689209v3.6918335
		c-0.0196838,1.3385315-0.0491791,2.0603638-0.0899353,2.1640854c0.7165527-0.6923981,1.5089569-1.2810745,2.3758545-1.7660294
		c0.8485718-0.465332,1.7716675-0.7092133,2.7706299-0.7288361c0.9483337,0,1.7913513,0.2340698,2.5275574,0.7022095
		c0.7067261,0.4667282,1.185791,1.0708237,1.4387207,1.8094711c0.1601562,0.5199966,0.2402344,1.2894821,0.2402344,2.3084488
		v11.4034729h-2.3898621V69.8579712c0-1.1563263-0.1967163-1.9468307-0.5901184-2.374321
		c-0.3835754-0.4064713-0.9778442-0.6195145-1.7843323-0.6405411c-1.5735779,0.0210266-3.0713043,0.9166565-4.4931335,2.686882
		v11.3235855h-2.4208069V61.2352829z M234.6034851,64.3328323c1.736557,0.0210266,3.3073273,0.4457092,4.7109222,1.2740631
		l-0.894989,1.8473206c-0.6575165-0.364418-1.2996063-0.6503448-1.926239-0.8591843
		c-0.6167908-0.1976318-1.2687073-0.297142-1.9571381-0.297142c-0.8696899,0-1.5623474,0.235466-2.0779877,0.7036057
		c-0.556366,0.468132-0.834549,1.1086731-0.834549,1.9202042c0,0.5942764,0.171402,1.0736237,0.5156097,1.4380493
		c0.3329926,0.3840332,0.9048309,0.6755753,1.7126923,0.8731995l2.0470734,0.4373016
		c2.7579803,0.6040878,4.1376801,2.0883942,4.1376801,4.4514999c-0.0295105,1.5515823-0.5690308,2.800415-1.6185455,3.7479019
		c-1.048111,0.9586945-2.4503021,1.4478607-4.2051086,1.4674835c-2.0667572-0.0196228-3.9578552-0.5508347-5.6733551-1.5922318
		l0.9244843-1.8375015c1.5749969,0.9979401,3.211792,1.4969177,4.907608,1.4969177
		c0.9694519,0,1.7323608-0.2550964,2.2873383-0.7652817c0.5451355-0.4891586,0.8275146-1.1507187,0.848587-1.9832764
		c0.0211029-1.4058075-0.8303223-2.2804108-2.554245-2.6238022l-1.9234314-0.4218903
		c-2.5837555-0.6349258-3.8847961-2.092598-3.9058685-4.3730087c0.0210724-1.4786987,0.5352936-2.665863,1.5440826-3.5614853
		C231.6572266,64.800972,232.9680786,64.3538589,234.6034851,64.3328323 M219.022171,66.4688797
		c-2.235321,0-3.4239502,1.6595078-3.5644379,4.9799118h7.0853424c-0.0210724-1.6707153-0.2641449-2.855072-0.7292023-3.5544739
		C221.2167664,66.9748611,220.2866669,66.5011215,219.022171,66.4688797 M220.023941,79.1548309
		c1.4611816,0,2.7214508-0.5017776,3.7793884-1.5053253l0.9230804,1.6118469
		c-1.4218445,1.2712555-3.1555786,1.9202042-5.202652,1.9510345c-4.5072021-0.1135254-6.7903137-2.937767-6.8507233-8.4699097
		c-0.0210724-2.5593338,0.5999298-4.5608292,1.8616028-6.0072861c1.2406158-1.4660873,2.7790833-2.1991272,4.615387-2.1991272
		c1.7140808,0.0210266,3.1120453,0.5928802,4.1910706,1.7155685c0.6519318,0.6447449,1.1141663,1.4562683,1.3853149,2.4331894
		c0.2500916,0.9769211,0.3765411,2.402359,0.3765411,4.2735062v0.3588104h-9.6452179v0.3770294
		c-0.0211029,1.5067291,0.2163544,2.6728668,0.7123108,3.4984131c0.4552155,0.6699677,1.0115967,1.1661377,1.6691284,1.4913101
		C218.506546,78.9978485,219.234314,79.1548309,220.023941,79.1548309 M205.1661835,60.05793
		c0-0.5704536,0.1868744-1.0385895,0.5592041-1.4030075c0.3540497-0.363018,0.7980194-0.5550346,1.333313-0.5760574
		c0.5549774,0,1.0087891,0.1822052,1.3628387,0.5452232c0.3526611,0.364418,0.5296783,0.8325539,0.5296783,1.4030075
		c0,0.5508308-0.1770172,1.0091591-0.5296783,1.3721733c-0.3540497,0.3840408-0.8078613,0.5760612-1.3628387,0.5760612
		c-0.5352936,0-0.9792633-0.1920204-1.333313-0.5760612C205.3530579,61.0362549,205.1661835,60.5891418,205.1661835,60.05793
		 M205.760498,65.0056076l2.4994812-0.4064713v16.2544403h-2.4994812V65.0056076z M188.8247833,68.5797043
		c-0.0210724-1.1507187-0.1123962-2.0014954-0.2753754-2.5509262l-0.3203278-0.7933121l2.3589783-0.6685638
		c0,0.0210266,0.1011353,0.263504,0.302063,0.7288361c0.1517334,0.465332,0.2374573,1.0427933,0.2571106,1.7351913
		c1.6031036-1.6216583,3.2216339-2.4331894,4.8556519-2.4331894c1.7941589,0.0420456,3.0544281,0.8171387,3.7808075,2.325264
		c0.2500763,0.5718536,0.3765411,1.1913681,0.3765411,1.8557281v12.0748444h-2.4390717V70.0780182
		c0-0.8339539-0.0309143-1.4324417-0.0913239-1.7968597c-0.0913239-0.364418-0.2472687-0.6503448-0.4692688-0.8591843
		c-0.373703-0.4274902-0.9427338-0.6517487-1.7098541-0.6727676c-0.6350555,0.021019-1.3558044,0.235466-2.1622772,0.6405334
		c-0.8078613,0.4274902-1.5089722,0.9587021-2.1032562,1.5936279v11.8702087h-2.3603973V68.5797043z M180.705368,72.7719116
		c-0.3947906-0.0420456-0.8008423-0.0630722-1.2153015-0.0630722c-1.9360809,0-3.3101654,0.318161-4.1208344,0.9544907
		c-0.8317566,0.6881943-1.237793,1.6370773-1.2167206,2.8466644c0,1.9510422,0.8963776,2.9251556,2.6919556,2.9251556
		c1.6930084-0.0406418,2.9448547-0.8746033,3.7555389-2.5018692L180.705368,72.7719116z M172.0253601,66.6567001
		c2.0695496-1.4142227,4.2318268-2.120636,6.484024-2.120636c2.1721039,0.0210266,3.6023712,0.8479767,4.2894135,2.4808502
		c0.3034821,0.8731995,0.4144745,2.0491486,0.3301697,3.5250397l-0.1194153,5.226593
		c-0.0421448,1.2376175,0.0182648,2.1220322,0.1812439,2.6518402c0.171402,0.5410233,0.5254517,0.9572983,1.0621643,1.2474289
		l-1.2434082,1.7954636c-1.090271-0.4036636-1.7927704-1.1787567-2.1046753-2.3238678
		c-1.344574,1.4450607-2.8338623,2.157074-4.4692688,2.1360474c-1.8587952-0.0420456-3.1513672-0.5452194-3.8777466-1.5109329
		c-0.3751373-0.4667358-0.6420898-0.9544907-0.8036652-1.4646759c-0.1924744-0.5284042-0.2880096-1.0484009-0.2880096-1.5571899
		c0.0604095-3.7478943,2.7973175-5.6526794,8.2079163-5.7157516c0.7081299,0.0210266,1.0720062,0.030838,1.0916748,0.030838
		v-1.1156845c0-0.7120132-0.0196686-1.2516327-0.0604095-1.6188507c-0.0913239-0.3658218-0.2388458-0.66436-0.4411621-0.8956299
		c-0.4552155-0.5760574-1.1492767-0.8647919-2.08078-0.8647919c-0.8907623,0.0210266-1.8068237,0.2102432-2.7495575,0.5662537
		c-0.9315186,0.3658142-1.664917,0.8059235-2.2016296,1.3189087L172.0253601,66.6567001z M157.5174713,77.1351166
		c1.1717529,1.3973999,2.4334412,2.0968018,3.7878418,2.0968018c0.7165527,0,1.3782959-0.1934204,1.9838409-0.5788651
		c0.5760498-0.3658142,1.000351-0.8353577,1.2729187-1.4100113c0.4341431-0.9713135,0.6505127-2.3182602,0.6505127-4.0408401
		c-0.0196686-2.0141068-0.2571106-3.5446625-0.7109222-4.5888596c-0.2528992-0.563446-0.6364594-1.0021515-1.1520844-1.3147049
		c-0.4945679-0.3027496-1.0649872-0.4541245-1.7112885-0.4541245c-1.5454712,0-2.9195557,0.7456589-4.1208191,2.239769V77.1351166z
		 M155.109314,68.3792725c-0.0828857-2.3126526-0.2009125-3.4493561-0.3540497-3.4073029l2.4812012-0.4359055
		c0.0393372-0.0308304,0.0955353,0.7694855,0.165802,2.4009552c1.3010101-1.5375595,2.8197937-2.307045,4.5549622-2.307045
		c1.6635132,0.0210266,3.0347748,0.6811829,4.1152039,1.9804688c1.1338196,1.4044113,1.7000275,3.4900055,1.7000275,6.2567749
		c0,2.3603134-0.4130554,4.1908112-1.2391968,5.4915009c-1.138031,1.9230042-2.7298889,2.8957214-4.7755432,2.9167404
		c-1.6522675-0.021019-3.0628815-0.6293182-4.230423-1.8276901v7.570076L155.109314,87.5V68.3792725z M129.9319611,68.5166321
		c-0.0210724-1.1507187-0.1025696-2.0127106-0.2458649-2.5831604l-0.320343-0.8087311l2.3617706-0.5578384
		c0,0.0210266,0.099762,0.263504,0.3020782,0.7274323c0.1517334,0.4653397,0.237442,1.0021515,0.2571106,1.6118546
		c0.5549622-0.6293259,1.2462311-1.1773529,2.073761-1.6426849c0.8078613-0.4639359,1.6143341-0.7064133,2.4221954-0.7274399
		c0.7966309,0,1.5286407,0.2228546,2.1945953,0.6671677c0.6364594,0.444313,1.1000977,1.1002655,1.392334,1.9692612
		c1.6157379-1.7169724,3.270813-2.5957794,4.9652252-2.6364288c1.1815948,0.0210266,2.1201324,0.410675,2.8155975,1.1703491
		c0.7067108,0.7905045,1.0593567,1.8347015,1.0593567,3.1353912v12.0117722h-2.4685516V69.0772781
		c0-1.5515823-0.664566-2.3266678-1.9922791-2.3266678c-0.6701813,0-1.3248901,0.2130432-1.9627686,0.6391296
		c-0.6490936,0.4274902-1.3642426,1.0371857-2.1454163,1.8276978v11.6361389h-2.4390564V69.5299911
		c0-0.9362717-0.1461182-1.6188507-0.4383545-2.0463409c-0.3526459-0.4260941-0.876709-0.6391373-1.5721741-0.6391373
		c-1.0986938-0.021019-2.4095612,0.6811829-3.9311676,2.108017v11.9010468h-2.3280487V68.5166321z M121.4879837,68.5390549
		c-0.3343887-0.7106094-0.8050537-1.2390213-1.413414-1.5824127c-0.5971222-0.3139572-1.2307663-0.4709396-1.8995361-0.4709396
		c-0.6982803,0-1.3164825,0.147171-1.8531799,0.4387054c-0.5872803,0.3041458-1.0228348,0.7330399-1.3066406,1.2866745
		c-0.5071945,0.9404755-0.7600937,2.3308716-0.7600937,4.1697845c0,2.3827286,0.3245392,4.1291275,0.9722519,5.2363968
		c0.2936401,0.4695435,0.7291794,0.8563843,1.306633,1.1605377c0.5577774,0.302742,1.1703568,0.4541168,1.8391266,0.4541168
		c1.6606979-0.030838,2.7804642-0.8367615,3.3579178-2.4149704c0.3133163-0.8774033,0.4692688-2.0323257,0.4692688-3.4647675
		C122.2003174,71.1460495,121.9628754,69.5426102,121.4879837,68.5390549 M111.6348114,72.8041458
		c0.0913239-5.4494476,2.287323-8.231636,6.589386-8.3465729c1.3024292,0.0210266,2.377243,0.2817307,3.225853,0.7807007
		c0.8682861,0.529808,1.5595322,1.2011795,2.0751724,2.0127106c0.9427414,1.3833847,1.4148102,3.3484344,1.4148102,5.8965607
		c-0.0210724,2.6420288-0.6308365,4.6589432-1.8320999,6.0535355c-1.220932,1.3833923-2.8198013,2.074379-4.7980194,2.074379
		C113.8996582,81.1605301,111.67556,78.3376923,111.6348114,72.8041458 M104.0703659,64.5360641
		c0.9792709,0.0210266,1.7969742,0.1752014,2.4545135,0.4639359c0.6462936,0.3405914,1.237793,0.7540665,1.7730865,1.2390213
		l-1.3333282,1.7281799c-0.4959564-0.4681396-0.9708481-0.8115311-1.4246597-1.0301819
		c-0.4341354-0.16539-0.945549-0.2494812-1.5314255-0.2494812c-1.3024292,0.021019-2.2732773,0.6166992-2.9083252,1.7856445
		c-0.5788574,1.1367035-0.8682861,2.8803024-0.8682861,5.229393c0.0196686,3.6848297,1.2883682,5.5377502,3.8047028,5.5587769
		c1.2841568,0,2.3955078-0.5774612,3.3354416-1.7351913l1.3347321,1.5978317
		c-1.3206787,1.4128189-2.8942719,2.1094208-4.7193451,2.0883942c-2.1875687,0-3.8257751-0.8003159-4.9146423-2.4037552
		c-1.0186157-1.4688797-1.5173874-3.3582458-1.496315-5.6695023c0-1.7169647,0.2262039-3.1115646,0.6786118-4.1851959
		c0.4327316-1.0610199,0.9820786-1.9258118,1.646637-2.5915756
		C101.079155,65.1443634,102.4686813,64.5360641,104.0703659,64.5360641 M74.4307632,68.5797043
		c-0.0196686-1.1507187-0.1110001-2.0014954-0.2739716-2.5509262l-0.3217392-0.7933121l2.3589706-0.6685638
		c0,0.0210266,0.1011581,0.263504,0.3034744,0.7288361c0.1503372,0.465332,0.2360382,1.0427933,0.2571106,1.7351913
		c1.6030884-1.6216583,3.2202301-2.4331894,4.8542328-2.4331894c1.7941666,0.0420456,3.0544434,0.8171387,3.7808151,2.325264
		c0.2514954,0.5718536,0.3765411,1.1913681,0.3765411,1.8557281v12.0748444h-2.4390564V70.0780182
		c0-0.8339539-0.0309067-1.4324417-0.0913239-1.7968597c-0.08992-0.364418-0.2472763-0.6503448-0.467865-0.8591843
		c-0.3737259-0.4274902-0.9441452-0.6517487-1.7098694-0.6727676c-0.6364517,0.021019-1.3572159,0.235466-2.163681,0.6405334
		c-0.8064575,0.4274902-1.5075455,0.9587021-2.1032562,1.5936279v11.8702087h-2.3603821V68.5797043z M66.3127518,72.7719116
		c-0.3962097-0.0420456-0.8008423-0.0630722-1.2167206-0.0630722c-1.9360695,0-3.3101501,0.318161-4.1208267,0.9544907
		c-0.831749,0.6881943-1.237793,1.6370773-1.2167206,2.8466644c0,1.9510422,0.897789,2.9251556,2.6919556,2.9251556
		c1.6930161-0.0406418,2.9448547-0.8746033,3.7569351-2.5018692L66.3127518,72.7719116z M57.6313362,66.6567001
		c2.0709496-1.4142227,4.233223-2.120636,6.4854164-2.120636c2.1721115,0.0210266,3.6009827,0.8479767,4.2880173,2.4808502
		c0.3048859,0.8731995,0.4144745,2.0491486,0.3315811,3.5250397l-0.1208267,5.226593
		c-0.0421524,1.2376175,0.0196686,2.1220322,0.1826477,2.6518402c0.1714096,0.5410233,0.5254593,0.9572983,1.0607605,1.2474289
		l-1.2420044,1.7954636c-1.0916748-0.4036636-1.7927628-1.1787567-2.1060791-2.3238678
		c-1.3431702,1.4450607-2.8324509,2.157074-4.4692612,2.1360474c-1.8573914-0.0420456-3.1499825-0.5452194-3.8777618-1.5109329
		c-0.3737297-0.4667358-0.6420784-0.9544907-0.8022499-1.4646759c-0.1924782-0.5284042-0.2880211-1.0484009-0.2880211-1.5571899
		c0.0604134-3.7478943,2.7959213-5.6526794,8.2065277-5.7157516c0.7081146,0.0210266,1.0720062,0.030838,1.0930786,0.030838
		v-1.1156845c0-0.7120132-0.0210724-1.2516327-0.0618134-1.6188507c-0.0913315-0.3658218-0.2374496-0.66436-0.4397659-0.8956299
		c-0.4566193-0.5760574-1.1492767-0.8647919-2.0807877-0.8647919c-0.8921623,0.0210266-1.8082161,0.2102432-2.7495537,0.5662537
		c-0.9315109,0.3658142-1.666317,0.8059235-2.203022,1.3189087L57.6313362,66.6567001z M49.5976181,60.05793
		c0-0.5704536,0.1854591-1.0385895,0.5591888-1.4030075c0.3540573-0.363018,0.7980309-0.5550346,1.3333282-0.5760574
		c0.5549736,0,1.0087814,0.1822052,1.3628387,0.5452232c0.3526497,0.364418,0.5296822,0.8325539,0.5296822,1.4030075
		c0,0.5508308-0.1770325,1.0091591-0.5296822,1.3721733c-0.3540573,0.3840408-0.8078651,0.5760612-1.3628387,0.5760612
		c-0.5352974,0-0.9792709-0.1920204-1.3333282-0.5760612C49.7830772,61.0362549,49.5976181,60.5891418,49.5976181,60.05793
		 M50.1919289,65.0056076l2.4994736-0.4064713v16.2544403h-2.4994736V65.0056076z M44.687191,77.6565094
		c0,0.6026917,0.0604134,1.0189743,0.1826477,1.2488327c0.1222343,0.2396774,0.3498421,0.3588104,0.6856346,0.3588104
		c0.1714096,0,0.2781868-0.021019,0.3189316-0.0616684l0.4875298,1.6202621
		c-0.4959602,0.2284622-1.0101852,0.3433914-1.5454865,0.3433914c-0.746048,0-1.3558121-0.2242584-1.8278847-0.6713715
		c-0.2416573-0.2074356-0.4285202-0.5045776-0.559185-0.8900223c-0.1208305-0.3433914-0.1812439-0.8003159-0.1812439-1.3735733
		v-16.873951c-0.102562-2.1528664-0.2304153-3.2405128-0.383564-3.2615395l2.4165802-0.4709396
		c0.0997543,0.0210266,0.2346344,1.2740631,0.4060402,3.7605133V77.6565094z M34.1287155,72.7719116
		c-0.3947983-0.0420456-0.8008423-0.0630722-1.215313-0.0630722c-1.937479,0-3.3101501,0.318161-4.1208267,0.9544907
		c-0.8317528,0.6881943-1.237793,1.6370773-1.2167206,2.8466644c0,1.9510422,0.8963833,2.9251556,2.6919556,2.9251556
		c1.6916046-0.0406418,2.9448547-0.8746033,3.7555313-2.5018692L34.1287155,72.7719116z M25.4473019,66.6567001
		c2.0709515-1.4142227,4.2332249-2.120636,6.4854183-2.120636c2.1721115,0.0210266,3.6009827,0.8479767,4.2894249,2.4808502
		c0.3034782,0.8731995,0.4144745,2.0491486,0.3301735,3.5250397l-0.1194229,5.226593
		c-0.0421524,1.2376175,0.0182648,2.1220322,0.1812401,2.6518402c0.1714096,0.5410233,0.5254669,0.9572983,1.0607643,1.2474289
		l-1.2420044,1.7954636c-1.090271-0.4036636-1.7927666-1.1787567-2.1046715-2.3238678
		c-1.344574,1.4450607-2.8338604,2.157074-4.469265,2.1360474c-1.8587971-0.0420456-3.1513844-0.5452194-3.8791676-1.5109329
		c-0.3737259-0.4667358-0.6406746-0.9544907-0.802248-1.4646759c-0.1924839-0.5284042-0.2880211-1.0484009-0.2880211-1.5571899
		c0.0604134-3.7478943,2.7973289-5.6526794,8.2079315-5.7157516c0.7081146,0.0210266,1.0720062,0.030838,1.0916748,0.030838
		v-1.1156845c0-0.7120132-0.0196686-1.2516327-0.0604134-1.6188507c-0.0913239-0.3658218-0.2388458-0.66436-0.4411659-0.8956299
		c-0.4552155-0.5760574-1.1492805-0.8647919-2.0807838-0.8647919c-0.8907623,0.0210266-1.8068142,0.2102432-2.7495613,0.5662537
		c-0.9315052,0.3658142-1.6649094,0.8059235-2.2016144,1.3189087L25.4473019,66.6567001z M22.3085613,64.9411316
		l-0.7418327,1.8711472h-3.2272549v10.2765808c0,0.8563843,0.1461182,1.4660797,0.4383564,1.8304977
		c0.3034763,0.3658218,0.8191051,0.5480347,1.5468903,0.5480347c0.6462936,0,1.1506824-0.1093292,1.514576-0.32798
		l0.3484364,1.5950317c-0.746048,0.4232864-1.6522655,0.6349258-2.7214603,0.6349258
		c-0.785387,0-1.4555664-0.1513748-2.0091305-0.4527206c-1.0186157-0.5312042-1.5173864-1.5880203-1.4963112-3.1718369V66.8122787
		h-2.028801v-1.8711472h2.028801c0.0702496-2.3813324,0.1545486-3.7226677,0.2557068-4.0240135l2.531786-0.5774612
		c0,0.0210228-0.0407429,0.5256004-0.1222324,1.5123329c-0.1306629,0.9572983-0.1966991,1.9874763-0.1966991,3.0891418H22.3085613z
		 M7.5,58.9352455h2.4685621v21.9183311H7.5V58.9352455z"/>
</g>
</svg>
